<svg width="151" height="56" viewBox="0 0 151 56" fill="none" xmlns="http://www.w3.org/2000/svg">
<path d="M46.6409 22.2003C46.3848 21.6263 46.2094 21.0032 46.1374 20.3431C45.7603 16.916 48.2332 13.8298 51.6634 13.454C52.1381 13.4019 52.605 13.4094 53.0609 13.4613L49.2471 17.6906C48.6321 18.375 48.7001 19.4456 49.4068 20.0829L51.9501 22.3768C52.6554 23.0128 53.7287 22.9733 54.3478 22.2871L58.3251 17.8774C58.4303 18.2299 58.5111 18.5988 58.5531 18.9794C58.9297 22.4058 56.4571 25.4921 53.0267 25.8694C51.7712 26.0069 50.5621 25.7593 49.5141 25.2233L46.3009 28.5245C45.6701 29.1983 44.6149 29.229 43.9423 28.5977L43.3408 28.0349C42.6717 27.4034 42.6376 26.347 43.269 25.6746L46.6409 22.2003Z" fill="#5EA7AC"/>
<path d="M8.0625 30.3571L9.27765 36.6567C9.27765 36.6567 9.73213 37.5645 10.4914 37.7178L12.4655 38.1726C12.4655 38.1726 13.0721 33.0893 17.6251 33.3944C17.6251 33.3944 21.7215 33.3168 21.9498 37.642C21.9498 37.642 22.0259 38.2481 23.1616 38.326L47.065 38.5526C47.065 38.5526 48.0509 38.0222 48.2029 37.5646C48.2029 37.5646 49.0384 33.0893 52.4519 33.3169C52.4519 33.3169 57.0046 33.2413 56.8531 37.7953C56.8531 37.7953 57.234 38.4774 57.7653 38.0222L59.2817 31.7974C59.2817 31.7974 59.9644 30.5113 56.0185 30.2059C52.0705 29.9014 46.9134 29.6756 46.9134 29.6756C46.9134 29.6756 46.0036 29.2206 45.7758 28.9159L40.1607 23.6809C40.1607 23.6809 39.9263 23.3067 38.9461 23.2991C38.9461 23.2991 27.945 22.5425 22.4049 23.1505C22.4049 23.1505 21.9722 23.1746 21.0828 23.9506L16.1831 28.9158C16.1831 28.9158 15.6517 29.4466 14.8924 29.4466C14.8924 29.4466 8.82191 29.7508 8.0625 30.3571ZM32.7756 28.0139V24.7079C32.8661 23.8091 33.6931 23.9721 33.6931 23.9721L38.5086 24.0787C39.3172 24.0787 39.7129 24.6005 39.7129 24.6005L43.269 28.3379C43.735 28.8596 43.0709 28.9481 43.0709 28.9481H33.6931C32.7219 28.9297 32.7756 28.0139 32.7756 28.0139ZM20.99 28.2312L23.7385 24.4571C23.7385 24.4571 24.0785 23.9354 24.8344 23.9003H30.8356C30.8356 23.9003 31.4635 23.8305 31.4293 24.4209V28.338C31.4293 28.338 31.4466 28.912 30.6739 28.9482H21.4389C21.4389 28.9482 20.4675 28.8597 20.99 28.2312Z" fill="#012B4F"/>
<path d="M13.5664 37.9462C13.5664 39.9569 15.1955 41.586 17.2074 41.586C19.2183 41.586 20.8486 39.9569 20.8486 37.9462C20.8486 35.9328 19.2183 34.3018 17.2074 34.3018C15.1955 34.3017 13.5664 35.9328 13.5664 37.9462ZM15.4624 37.9462C15.4624 36.9816 16.2433 36.1979 17.2074 36.1979C18.1722 36.1979 18.952 36.9815 18.952 37.9462C18.952 38.9094 18.1723 39.6909 17.2074 39.6909C16.2433 39.6909 15.4624 38.9094 15.4624 37.9462Z" fill="#012B4F"/>
<path d="M48.9609 37.9462C48.9609 39.9569 50.5911 41.586 52.6023 41.586C54.6138 41.586 56.2454 39.9569 56.2454 37.9462C56.2454 35.9328 54.6138 34.3018 52.6023 34.3018C50.5911 34.3017 48.9609 35.9328 48.9609 37.9462ZM50.8575 37.9462C50.8575 36.9816 51.64 36.1979 52.6023 36.1979C53.5666 36.1979 54.347 36.9815 54.347 37.9462C54.347 38.9094 53.5666 39.6909 52.6023 39.6909C51.64 39.6909 50.8575 38.9094 50.8575 37.9462Z" fill="#012B4F"/>
<path fill-rule="evenodd" clip-rule="evenodd" d="M66.0234 19.3896V35.8959H71.9876C73.2879 35.8959 74.3437 35.7025 75.1551 35.3156C75.9664 34.9288 76.5602 34.4049 76.9363 33.744C77.3124 33.0831 77.5005 32.3389 77.5005 31.5114C77.5005 30.641 77.3285 29.9049 76.9846 29.3031C76.6408 28.7013 76.2136 28.2392 75.7031 27.9168C75.1927 27.5944 74.6849 27.4171 74.1799 27.3849V27.2237C74.6527 27.0947 75.0906 26.8959 75.4936 26.6273C75.9019 26.3586 76.2297 25.9932 76.4769 25.5311C76.7294 25.0691 76.8557 24.4834 76.8557 23.7741C76.8557 22.9682 76.673 22.2347 76.3076 21.5738C75.9422 20.9076 75.3861 20.3783 74.6393 19.9861C73.8924 19.5885 72.944 19.3896 71.7942 19.3896H66.0234ZM71.9876 34.1228H68.0222V28.3843H72.0843C72.8043 28.3843 73.4276 28.5294 73.9542 28.8195C74.4808 29.1043 74.8864 29.4858 75.1712 29.964C75.456 30.4368 75.5984 30.9526 75.5984 31.5114C75.5984 32.2368 75.3216 32.8547 74.7682 33.3652C74.2202 33.8703 73.2933 34.1228 71.9876 34.1228ZM71.7297 26.6434H68.0222V21.1628H71.7942C72.8903 21.1628 73.6909 21.418 74.196 21.9285C74.7011 22.4335 74.9536 23.0488 74.9536 23.7741C74.9536 24.3544 74.8085 24.8595 74.5184 25.2894C74.2336 25.7192 73.8467 26.0523 73.3578 26.2888C72.8742 26.5252 72.3315 26.6434 71.7297 26.6434Z" fill="black"/>
<path fill-rule="evenodd" clip-rule="evenodd" d="M80.7848 19.3896V35.8959H82.7836V29.4482H86.3943C86.5373 29.4482 86.6775 29.4455 86.8148 29.4402L90.2952 35.8959H92.6164L88.8877 29.0895C89.1213 29.01 89.3406 28.9173 89.5457 28.8114C90.3678 28.3816 90.9776 27.7905 91.3752 27.0383C91.7728 26.2861 91.9717 25.4237 91.9717 24.4511C91.9717 23.4786 91.7728 22.6108 91.3752 21.8479C90.9776 21.0849 90.3651 20.4858 89.5376 20.0505C88.7102 19.6099 87.6517 19.3896 86.3621 19.3896H80.7848ZM82.7836 27.6428H86.3299C87.2111 27.6428 87.9203 27.5138 88.4576 27.2559C89.0003 26.998 89.3925 26.6326 89.6343 26.1598C89.8815 25.6816 90.0051 25.112 90.0051 24.4511C90.0051 23.7902 89.8815 23.2126 89.6343 22.7183C89.3872 22.224 88.9922 21.8425 88.4496 21.5738C87.9069 21.2998 87.1896 21.1628 86.2976 21.1628H82.7836V27.6428Z" fill="black"/>
<path fill-rule="evenodd" clip-rule="evenodd" d="M93.8838 35.8959H95.9793L97.6388 31.2213H104.314L105.973 35.8959H108.069L102.008 19.3896H99.9447L93.8838 35.8959ZM103.684 29.4482L101.041 22.001H100.912L98.2682 29.4482H103.684Z" fill="black"/>
<path d="M121.795 35.8959H123.729V19.3896H121.762V32.3819H121.601L112.574 19.3896H110.64V35.8959H112.639V22.9359H112.8L121.795 35.8959Z" fill="black"/>
<path fill-rule="evenodd" clip-rule="evenodd" d="M127.729 35.8959H132.822C134.499 35.8959 135.923 35.5655 137.094 34.9046C138.265 34.2383 139.157 33.2873 139.77 32.0514C140.382 30.8102 140.689 29.3299 140.689 27.6105C140.689 25.9019 140.385 24.435 139.778 23.2099C139.171 21.9795 138.297 21.0365 137.158 20.381C136.019 19.7201 134.649 19.3896 133.048 19.3896H127.729V35.8959ZM132.693 34.1228H129.727V21.1628H132.919C134.209 21.1628 135.286 21.4234 136.151 21.9446C137.016 22.4604 137.666 23.2019 138.101 24.1691C138.537 25.1308 138.754 26.278 138.754 27.6105C138.754 28.9538 138.534 30.1117 138.093 31.0843C137.653 32.0568 136.984 32.8064 136.086 33.3329C135.189 33.8595 134.058 34.1228 132.693 34.1228Z" fill="#5EA7AC"/>
</svg>
