<svg 
 xmlns="http://www.w3.org/2000/svg"
 xmlns:xlink="http://www.w3.org/1999/xlink"
 width="22px" height="12px">
<path fill-rule="evenodd"  fill="rgb(255, 255, 255)"
 d="M21.701,7.179 C21.325,6.788 20.714,6.788 20.338,7.179 L18.986,8.582 L18.986,1.001 C18.986,0.448 18.554,-0.000 18.021,-0.000 L8.582,-0.000 C8.050,-0.000 7.618,0.448 7.618,1.001 C7.618,1.554 8.050,2.002 8.582,2.002 L17.057,2.002 L17.057,8.582 L15.705,7.178 C15.328,6.787 14.718,6.787 14.342,7.178 C13.965,7.569 13.965,8.202 14.341,8.594 L17.339,11.706 C17.520,11.894 17.765,11.999 18.021,11.999 C18.278,11.999 18.522,11.893 18.704,11.706 L21.702,8.594 C22.078,8.203 22.078,7.569 21.701,7.179 ZM13.401,9.998 L4.926,9.998 L4.926,3.418 L6.278,4.821 C6.467,5.016 6.713,5.114 6.960,5.114 C7.207,5.114 7.454,5.016 7.642,4.821 C8.019,4.430 8.019,3.797 7.642,3.406 L4.644,0.293 C4.463,0.106 4.218,0.000 3.962,0.000 C3.705,0.000 3.460,0.106 3.279,0.293 L0.281,3.406 C-0.095,3.797 -0.095,4.430 0.282,4.821 C0.659,5.212 1.268,5.212 1.645,4.821 L2.998,3.418 L2.998,10.999 C2.998,11.551 3.429,11.1000 3.962,11.1000 L13.401,11.1000 C13.934,11.1000 14.365,11.551 14.365,10.999 C14.365,10.446 13.934,9.998 13.401,9.998 Z"/>
</svg>